# xmcd
#
# Track frame offsets:
#	150
#	20556
#	29764
#	50498
#	73419
#	93082
#	117172
#	135034
#	152873
#	164438
#	183401
#	204756
#	228087
#
# Disc length: 3292 seconds
#
# Revision: 0
# Processed by: cddbd v1.5.1PL2 Copyright (c) Steve Scherf et al.
# Submitted via: dBpowerAMP V4.0
#
DISCID=a60cda0d
DTITLE=Jimmy Hall - Limited Edition 1969-2006
DYEAR=1900
DGENRE=Blues
TTITLE0=Rendezvous With The Blues
TTITLE1=One Track Mind
TTITLE2=If That Ain't Love
TTITLE3=Love Will
TTITLE4=Midnight to Daylight
TTITLE5=Keep On Smilin'
TTITLE6=A Long Good-bye
TTITLE7=The Money Doesn't Matter
TTITLE8=That Same Old Moon
TTITLE9=Cadillac Tracks
TTITLE10=Street Corner Serenade
TTITLE11=Dixie Rock
TTITLE12=Untitled
EXTD=
EXTT0=
EXTT1=
EXTT2=
EXTT3=
EXTT4=
EXTT5=
EXTT6=
EXTT7=
EXTT8=
EXTT9=
EXTT10=
EXTT11=
EXTT12=
PLAYORDER=
